<?xml version="1.0" encoding="utf-8"?>
<!-- Generator: Adobe Illustrator 25.2.1, SVG Export Plug-In . SVG Version: 6.00 Build 0)  -->
<svg version="1.1" id="Layer_1" xmlns="http://www.w3.org/2000/svg" xmlns:xlink="http://www.w3.org/1999/xlink" x="0px" y="0px"
	 viewBox="0 0 113 108.9" style="enable-background:new 0 0 113 108.9;" xml:space="preserve">
<style type="text/css">
	.st0{fill:#4B23A3;}
</style>
<path class="st0" d="M48.4,36.2c0,4.5,3.6,8.2,8.1,8.2s8.2-3.6,8.2-8.1s-3.6-8.2-8.1-8.2l0,0C52.1,28.1,48.4,31.7,48.4,36.2
	L48.4,36.2z"/>
<path class="st0" d="M111.5,69.8c1-4.3,1.6-8.8,1.6-13.3L99,56.4l0,0l-17-0.1v13.5l14.7,0.1c-2.9,8.4-8.2,15.6-15.3,20.9L56.6,56.4
	c-0.3,0.4-0.5,0.9-0.8,1.3l-24.2,33l0,0l0,0c-14.8-10.8-21-29.9-15.4-47.4l0,0C22,26,38.2,14.2,56.5,14.2l0,0
	c18.4,0.1,34.7,11.9,40.4,29.4l0,0c0.7,2.2,1.2,4.5,1.5,6.8l14.3-0.3c-0.3-2.3-0.7-4.5-1.2-6.7c-0.3-1.3-0.7-2.6-1-3.8
	C103.1,16.1,81.4,0.1,56.8,0l0,0C32.3-0.1,10.4,15.6,2.7,38.8h0.1C-4.8,62.1,3.4,87.6,23.2,102c3.7,2.7,7.7,4.9,11.9,6.6
	c1.9-2.6,3.9-5.3,5.8-7.9l0,0l15.7-21.3l12.5,17.4l0,0l8.6,12c4.3-1.7,8.3-3.9,12.1-6.5l0,0C100,94.8,107.5,84,111,71.7
	c0.1-0.6,0.3-1.1,0.4-1.7h0.1V69.8z"/>
</svg>
